<svg width="258" height="258" viewBox="0 0 258 258" fill="none" xmlns="http://www.w3.org/2000/svg">
<g filter="url(#filter0_d_3_3)">
<circle cx="125" cy="125" r="125" fill="white"/>
</g>
<circle cx="125.5" cy="125.5" r="116.5" fill="#5F2C01"/>
<circle cx="125.5" cy="125.5" r="112.5" fill="#009ECB"/>
<circle cx="125.5" cy="125.5" r="105.5" fill="#0059A7"/>
<circle cx="125.5" cy="125.5" r="100.5" fill="#5F2C01"/>
<circle cx="125" cy="125" r="96" fill="#C9E8FC"/>
<circle cx="125" cy="125" r="86" fill="white"/>
<path d="M115.924 49V45.556H117.94V36.106H115.294V33.733L119.956 32.662H123.484V45.556H125.248V49H115.924ZM126.224 47.194C126.224 45.99 126.399 44.926 126.749 44.002C127.113 43.078 127.701 42.21 128.513 41.398C129.325 40.572 130.445 39.718 131.873 38.836C132.293 38.57 132.587 38.346 132.755 38.164C132.937 37.968 133.028 37.737 133.028 37.471C133.028 36.897 132.615 36.61 131.789 36.61C131.173 36.61 130.466 36.771 129.668 37.093C128.87 37.415 128.149 37.821 127.505 38.311L126.266 33.838C127.162 33.39 128.191 33.012 129.353 32.704C130.515 32.382 131.684 32.221 132.86 32.221C134.792 32.221 136.29 32.648 137.354 33.502C138.418 34.356 138.95 35.567 138.95 37.135C138.95 37.975 138.761 38.717 138.383 39.361C138.019 39.991 137.571 40.523 137.039 40.957C136.521 41.391 135.842 41.888 135.002 42.448C134.064 43.064 133.371 43.596 132.923 44.044C132.489 44.478 132.272 44.982 132.272 45.556H134.813V44.359H139.118V49H126.224V47.194Z" fill="#E73E2B"/>
<path d="M211.206 122.663C211.64 122.775 212.053 123.006 212.445 123.356C212.851 123.692 213.18 124.119 213.432 124.637C213.698 125.155 213.831 125.729 213.831 126.359C213.831 127.899 213.278 129.11 212.172 129.992C211.08 130.86 209.456 131.294 207.3 131.294C206.278 131.294 205.256 131.182 204.234 130.958C203.212 130.72 202.302 130.433 201.504 130.097V125.624C202.372 126.002 203.268 126.31 204.192 126.548C205.13 126.786 206.019 126.905 206.859 126.905C207.447 126.905 207.874 126.814 208.14 126.632C208.42 126.45 208.56 126.149 208.56 125.729C208.56 124.917 208.07 124.511 207.09 124.511H205.578V121.067H206.754C207.678 121.067 208.14 120.675 208.14 119.891C208.14 119.135 207.678 118.757 206.754 118.757C206.082 118.757 205.382 118.918 204.654 119.24C203.926 119.548 203.219 119.954 202.533 120.458L201.294 115.985C202.148 115.537 203.121 115.159 204.213 114.851C205.305 114.529 206.404 114.368 207.51 114.368C209.442 114.368 210.926 114.774 211.962 115.586C212.998 116.398 213.516 117.546 213.516 119.03C213.516 119.954 213.299 120.717 212.865 121.319C212.431 121.907 211.878 122.355 211.206 122.663Z" fill="#E73E2B"/>
<path d="M195.488 169V167H190.288V164.376L195.808 156.552H199.712V164.568H200.816V167H199.712V169H195.488ZM193.248 164.568H195.488V161.416L193.248 164.568Z" fill="#5F2C01"/>
<path d="M58.848 162.536C59.4453 162.749 59.9573 163.107 60.384 163.608C60.8213 164.099 61.04 164.749 61.04 165.56C61.04 166.765 60.576 167.677 59.648 168.296C58.7307 168.915 57.3813 169.224 55.6 169.224C53.8187 169.224 52.464 168.925 51.536 168.328C50.6187 167.72 50.16 166.829 50.16 165.656C50.16 164.813 50.3893 164.136 50.848 163.624C51.3173 163.112 51.872 162.749 52.512 162.536C51.9467 162.333 51.472 162.008 51.088 161.56C50.704 161.101 50.512 160.515 50.512 159.8C50.512 158.659 50.9387 157.795 51.792 157.208C52.656 156.621 53.9253 156.328 55.6 156.328C57.264 156.328 58.5227 156.621 59.376 157.208C60.2293 157.795 60.656 158.659 60.656 159.8C60.656 160.525 60.4853 161.112 60.144 161.56C59.8027 162.008 59.3707 162.333 58.848 162.536ZM55.6 159.176C54.8747 159.176 54.512 159.549 54.512 160.296C54.512 161 54.8747 161.352 55.6 161.352C56.3253 161.352 56.688 161 56.688 160.296C56.688 159.549 56.3253 159.176 55.6 159.176ZM55.6 166.376C56.432 166.376 56.848 165.949 56.848 165.096C56.848 164.669 56.7413 164.344 56.528 164.12C56.3147 163.896 56.0053 163.784 55.6 163.784C55.1947 163.784 54.8853 163.896 54.672 164.12C54.4587 164.344 54.352 164.669 54.352 165.096C54.352 165.949 54.768 166.376 55.6 166.376Z" fill="#5F2C01"/>
<path d="M169.512 190.776C170.707 190.776 171.619 191.128 172.248 191.832C172.877 192.536 173.192 193.491 173.192 194.696C173.192 195.603 172.984 196.397 172.568 197.08C172.163 197.763 171.555 198.291 170.744 198.664C169.933 199.037 168.952 199.224 167.8 199.224C167.021 199.224 166.243 199.139 165.464 198.968C164.685 198.787 163.992 198.568 163.384 198.312V194.904C164.771 195.555 166.029 195.88 167.16 195.88C167.747 195.88 168.184 195.763 168.472 195.528C168.76 195.283 168.904 194.904 168.904 194.392C168.904 194.019 168.819 193.725 168.648 193.512C168.477 193.299 168.205 193.192 167.832 193.192C167.544 193.192 167.309 193.267 167.128 193.416C166.957 193.555 166.819 193.757 166.712 194.024H163.352L164.04 186.552H172.552V189.656H167.24L167.096 191.304C167.768 190.952 168.573 190.776 169.512 190.776Z" fill="#5F2C01"/>
<path d="M82.952 199C82.952 198.051 83.1493 197 83.544 195.848C83.9493 194.696 84.456 193.581 85.064 192.504C85.672 191.416 86.2853 190.467 86.904 189.656H84.52V191.128H81.16V186.552H91.208V188.984C90.6213 189.859 90.04 190.883 89.464 192.056C88.8987 193.219 88.424 194.419 88.04 195.656C87.6667 196.883 87.48 197.997 87.48 199H82.952Z" fill="#5F2C01"/>
<path d="M190.192 83.624C190.192 82.7067 190.325 81.896 190.592 81.192C190.869 80.488 191.317 79.8267 191.936 79.208C192.555 78.5787 193.408 77.928 194.496 77.256C194.816 77.0533 195.04 76.8827 195.168 76.744C195.307 76.5947 195.376 76.4187 195.376 76.216C195.376 75.7787 195.061 75.56 194.432 75.56C193.963 75.56 193.424 75.6827 192.816 75.928C192.208 76.1733 191.659 76.4827 191.168 76.856L190.224 73.448C190.907 73.1067 191.691 72.8187 192.576 72.584C193.461 72.3387 194.352 72.216 195.248 72.216C196.72 72.216 197.861 72.5413 198.672 73.192C199.483 73.8427 199.888 74.7653 199.888 75.96C199.888 76.6 199.744 77.1653 199.456 77.656C199.179 78.136 198.837 78.5413 198.432 78.872C198.037 79.2027 197.52 79.5813 196.88 80.008C196.165 80.4773 195.637 80.8827 195.296 81.224C194.965 81.5547 194.8 81.9387 194.8 82.376H196.736V81.464H200.016V85H190.192V83.624Z" fill="#5F2C01"/>
<path d="M46.704 85V82.376H48.24V75.176H46.224V73.368L49.776 72.552H52.464V82.376H53.808V85H46.704ZM60.2154 85.224C58.4127 85.224 57.0207 84.712 56.0394 83.688C55.0687 82.664 54.5834 81.0267 54.5834 78.776C54.5834 76.5253 55.0687 74.888 56.0394 73.864C57.0207 72.84 58.4127 72.328 60.2154 72.328C62.018 72.328 63.4047 72.84 64.3754 73.864C65.3567 74.888 65.8474 76.5253 65.8474 78.776C65.8474 80.856 65.394 82.4507 64.4874 83.56C63.5914 84.6693 62.1674 85.224 60.2154 85.224ZM60.2154 82.376C60.9407 82.376 61.3034 81.9813 61.3034 81.192V76.36C61.3034 75.5707 60.9407 75.176 60.2154 75.176C59.49 75.176 59.1274 75.5707 59.1274 76.36V81.192C59.1274 81.9813 59.49 82.376 60.2154 82.376Z" fill="#5F2C01"/>
<path d="M164.704 58V55.376H166.24V48.176H164.224V46.368L167.776 45.552H170.464V55.376H171.808V58H164.704Z" fill="#5F2C01"/>
<path d="M73.704 58V55.376H75.24V48.176H73.224V46.368L76.776 45.552H79.464V55.376H80.808V58H73.704ZM82.0634 58V55.376H83.5994V48.176H81.5834V46.368L85.1354 45.552H87.8234V55.376H89.1674V58H82.0634Z" fill="#5F2C01"/>
<path d="M42.825 114.368C45.317 114.368 47.172 115.04 48.39 116.384C49.608 117.714 50.217 119.758 50.217 122.516C50.217 125.54 49.503 127.759 48.075 129.173C46.661 130.587 44.708 131.294 42.216 131.294C41.194 131.294 40.242 131.203 39.36 131.021C38.478 130.853 37.771 130.629 37.239 130.349V126.107C37.771 126.345 38.38 126.541 39.066 126.695C39.752 126.835 40.48 126.905 41.25 126.905C43.252 126.905 44.253 126.163 44.253 124.679V124.448C43.357 124.798 42.391 124.973 41.355 124.973C39.731 124.973 38.464 124.539 37.554 123.671C36.658 122.789 36.21 121.564 36.21 119.996C36.21 118.134 36.784 116.734 37.932 115.796C39.08 114.844 40.711 114.368 42.825 114.368ZM41.397 119.912C41.397 120.472 41.516 120.906 41.754 121.214C42.006 121.522 42.384 121.676 42.888 121.676C43.364 121.676 43.819 121.585 44.253 121.403V119.723C44.253 119.163 44.134 118.757 43.896 118.505C43.658 118.239 43.301 118.106 42.825 118.106C42.349 118.106 41.992 118.253 41.754 118.547C41.516 118.841 41.397 119.296 41.397 119.912Z" fill="#E73E2B"/>
<path d="M129.429 201.689C130.983 201.689 132.194 202.137 133.062 203.033C133.944 203.929 134.385 205.175 134.385 206.771C134.385 208.549 133.797 209.914 132.621 210.866C131.459 211.818 129.814 212.294 127.686 212.294C125.222 212.294 123.388 211.629 122.184 210.299C120.98 208.955 120.378 206.904 120.378 204.146C120.378 201.122 121.085 198.903 122.499 197.489C123.927 196.075 125.887 195.368 128.379 195.368C129.401 195.368 130.353 195.459 131.235 195.641C132.117 195.809 132.824 196.033 133.356 196.313V200.555C132.824 200.317 132.215 200.128 131.529 199.988C130.843 199.834 130.115 199.757 129.345 199.757C127.343 199.757 126.342 200.499 126.342 201.983V202.235C126.776 202.081 127.266 201.955 127.812 201.857C128.358 201.745 128.897 201.689 129.429 201.689ZM127.77 208.556C128.246 208.556 128.603 208.416 128.841 208.136C129.079 207.842 129.198 207.387 129.198 206.771C129.198 206.211 129.072 205.777 128.82 205.469C128.582 205.147 128.211 204.986 127.707 204.986C127.231 204.986 126.776 205.077 126.342 205.259V206.939C126.342 207.499 126.461 207.912 126.699 208.178C126.937 208.43 127.294 208.556 127.77 208.556Z" fill="#E73E2B"/>
<rect x="122" y="81" width="8" height="40" rx="4" fill="#94B33E" stroke="#5F2C01" stroke-width="2"/>
<rect x="128" y="127" width="8" height="58" rx="4" transform="rotate(-90 128 127)" fill="#FFDA17" stroke="#5F2C01" stroke-width="2"/>
<circle cx="126" cy="123" r="8" fill="#5F2C01"/>
<circle cx="126" cy="123" r="4" fill="#E73739"/>
<defs>
<filter id="filter0_d_3_3" x="0" y="0" width="258" height="258" filterUnits="userSpaceOnUse" color-interpolation-filters="sRGB">
<feFlood flood-opacity="0" result="BackgroundImageFix"/>
<feColorMatrix in="SourceAlpha" type="matrix" values="0 0 0 0 0 0 0 0 0 0 0 0 0 0 0 0 0 0 127 0" result="hardAlpha"/>
<feOffset dx="4" dy="4"/>
<feGaussianBlur stdDeviation="2"/>
<feComposite in2="hardAlpha" operator="out"/>
<feColorMatrix type="matrix" values="0 0 0 0 0 0 0 0 0 0 0 0 0 0 0 0 0 0 0.35 0"/>
<feBlend mode="normal" in2="BackgroundImageFix" result="effect1_dropShadow_3_3"/>
<feBlend mode="normal" in="SourceGraphic" in2="effect1_dropShadow_3_3" result="shape"/>
</filter>
</defs>
</svg>
